<svg width="24" height="24" viewBox="0 0 24 24" fill="none" xmlns="http://www.w3.org/2000/svg">
<path d="M20 14.6667C18 14.6667 15.5413 19.396 15.3333 21.3333C15.0527 23.9433 16.6667 24 16.6667 24H24V17.3333C24 17.3333 21.708 14.6667 20 14.6667Z" fill="#50A5E6"/>
<path d="M19.3278 19.539C20.4044 17.6743 20.8537 15.9182 20.3314 15.6167C19.8091 15.3151 18.513 16.5823 17.4364 18.447C16.3598 20.3117 15.9105 22.0678 16.4328 22.3693C16.9551 22.6709 18.2512 21.4037 19.3278 19.539Z" fill="#1C6399"/>
<path d="M13.3907 0C14.178 0 14.816 0.638 14.816 1.42533C14.816 1.95133 15.2613 8.64133 15.2613 8.64133L11.9653 12V1.42533C11.9653 0.638 12.6033 0 13.3907 0Z" fill="#F9CA55"/>
<path d="M12.5833 2.882C12.5833 2.14933 13.1513 1.556 13.852 1.556C14.5527 1.556 15.1207 2.15 15.1207 2.882C15.1207 2.882 15.4773 6.84334 15.9153 9.12867C16.5007 10.3727 16.828 12.25 16.756 13.294C16.792 13.5593 20.506 16.6313 20.506 16.6313C20.3187 17.84 19 20.7347 17.3333 22.0707L14.986 20.1213C13.0627 19.852 12.014 17.9007 12.014 17.2787C12.014 15.2893 12.5833 2.882 12.5833 2.882Z" fill="#FFDC5D"/>
<path d="M4 14.6667C6 14.6667 8.45867 19.396 8.66667 21.3333C8.94733 23.9433 7.33333 24 7.33333 24H0V17.3333C0 17.3333 2.292 14.6667 4 14.6667Z" fill="#50A5E6"/>
<path d="M7.56649 22.3683C8.08878 22.0668 7.63944 20.3107 6.56285 18.446C5.48627 16.5813 4.19012 15.3141 3.66782 15.6157C3.14552 15.9172 3.59487 17.6733 4.67145 19.538C5.74804 21.4027 7.04419 22.6699 7.56649 22.3683Z" fill="#1C6399"/>
<path d="M10.7073 0.00733378C9.86333 -0.0773329 9.152 0.583334 9.152 1.40933C9.152 1.92933 9.02933 8.28867 9.02933 8.28867L11.93 12L11.9713 1.49C11.9713 0.752667 11.4413 0.0806671 10.7073 0.00733378Z" fill="#F9CA55"/>
<path d="M11.4167 2.882C11.4167 2.14933 10.8487 1.556 10.148 1.556C9.44733 1.556 8.87933 2.15 8.87933 2.882C8.87933 2.882 8.52267 6.84334 8.08467 9.12867C7.49933 10.3727 7.172 12.25 7.244 13.294C7.208 13.5593 3.494 16.6313 3.494 16.6313C3.68133 17.84 5 20.7347 6.66667 22.0707L9.014 20.1213C10.9373 19.852 11.986 17.9007 11.986 17.2787C11.986 15.2893 11.4167 2.882 11.4167 2.882Z" fill="#FFDC5D"/>
<path d="M11.972 17.2153C11.696 17.2153 11.472 16.9913 11.472 16.7153V1.86133C11.472 1.58533 11.696 1.36133 11.972 1.36133C12.248 1.36133 12.472 1.58533 12.472 1.86133V16.716C12.4727 16.9913 12.2487 17.2153 11.972 17.2153Z" fill="#F9CA55"/>
</svg>
